<svg width="220" height="180" viewBox="0 0 220 180" fill="none" xmlns="http://www.w3.org/2000/svg">
  <rect width="220" height="180" rx="20" fill="#F7F5F2"/>
  <path d="M83 44L97 34H123L137 44L152 65L140 72L132 58V133H88V58L80 72L68 65L83 44Z" fill="#E0A300"/>
  <path d="M132 133C128 142 121 146 110 146C99 146 92 142 88 133" fill="#D49700"/>
  <path d="M97 34L110 49L123 34" fill="#D09300"/>
  <path d="M83 44L60 111L75 117L88 74L83 44Z" fill="#D89C00"/>
  <path d="M137 44L160 111L145 117L132 74L137 44Z" fill="#D89C00"/>
  <path d="M92 38C101 40 108 41 110 41C112 41 119 40 128 38" stroke="#4E5965" stroke-width="2" stroke-linecap="round"/>
</svg>
